<svg width="14" height="14" viewBox="0 0 14 14" fill="none" xmlns="http://www.w3.org/2000/svg">
<path d="M1.33333 13.6667C0.966667 13.6667 0.652778 13.5361 0.391667 13.275C0.130556 13.0139 0 12.7 0 12.3333V2.99999C0 2.63333 0.130556 2.31944 0.391667 2.05833C0.652778 1.79722 0.966667 1.66666 1.33333 1.66666H2V0.999995C2 0.811106 2.06389 0.652773 2.19167 0.524995C2.31944 0.397217 2.47778 0.333328 2.66667 0.333328C2.85556 0.333328 3.01389 0.397217 3.14167 0.524995C3.26944 0.652773 3.33333 0.811106 3.33333 0.999995V1.66666H8.66667V0.999995C8.66667 0.811106 8.73056 0.652773 8.85833 0.524995C8.98611 0.397217 9.14444 0.333328 9.33333 0.333328C9.52222 0.333328 9.68056 0.397217 9.80833 0.524995C9.93611 0.652773 10 0.811106 10 0.999995V1.66666H10.6667C11.0333 1.66666 11.3472 1.79722 11.6083 2.05833C11.8694 2.31944 12 2.63333 12 2.99999V5.68333C12 5.87222 11.9361 6.03055 11.8083 6.15833C11.6806 6.28611 11.5222 6.35 11.3333 6.35C11.1444 6.35 10.9861 6.28611 10.8583 6.15833C10.7306 6.03055 10.6667 5.87222 10.6667 5.68333V5.66666H1.33333V12.3333H5.33333C5.52222 12.3333 5.68056 12.3972 5.80833 12.525C5.93611 12.6528 6 12.8111 6 13C6 13.1889 5.93611 13.3472 5.80833 13.475C5.68056 13.6028 5.52222 13.6667 5.33333 13.6667H1.33333ZM1.33333 4.33333H10.6667V2.99999H1.33333V4.33333ZM7.33333 13V11.9C7.33333 11.8111 7.35 11.725 7.38333 11.6417C7.41667 11.5583 7.46667 11.4833 7.53333 11.4167L11.0167 7.94999C11.1167 7.84999 11.2278 7.77777 11.35 7.73333C11.4722 7.68888 11.5944 7.66666 11.7167 7.66666C11.85 7.66666 11.9778 7.69166 12.1 7.74166C12.2222 7.79166 12.3333 7.86666 12.4333 7.96666L13.05 8.58333C13.1389 8.68333 13.2083 8.79444 13.2583 8.91666C13.3083 9.03888 13.3333 9.16111 13.3333 9.28333C13.3333 9.40555 13.3111 9.53055 13.2667 9.65833C13.2222 9.78611 13.15 9.89999 13.05 9.99999L9.58333 13.4667C9.51667 13.5333 9.44167 13.5833 9.35833 13.6167C9.275 13.65 9.18889 13.6667 9.1 13.6667H8C7.81111 13.6667 7.65278 13.6028 7.525 13.475C7.39722 13.3472 7.33333 13.1889 7.33333 13ZM8.33333 12.6667H8.96667L10.9833 10.6333L10.6833 10.3167L10.3667 10.0167L8.33333 12.0333V12.6667ZM10.6833 10.3167L10.3667 10.0167L10.9833 10.6333L10.6833 10.3167Z" fill="#5230FF"/>
</svg>
