<svg width="20" height="20" viewBox="0 0 20 20" fill="none" xmlns="http://www.w3.org/2000/svg">
<rect width="20" height="20" rx="10" fill="#5230FF"/>
<mask id="mask0_832_248" style="mask-type:alpha" maskUnits="userSpaceOnUse" x="2" y="2" width="16" height="16">
<rect x="2" y="2" width="16" height="16" fill="#D9D9D9"/>
</mask>
<g mask="url(#mask0_832_248)">
<path d="M9.4 10.6H6.6C6.43 10.6 6.2875 10.5428 6.1725 10.4285C6.0575 10.3142 6 10.1725 6 10.0035C6 9.83451 6.0575 9.69167 6.1725 9.575C6.2875 9.45833 6.43 9.4 6.6 9.4H9.4V6.6C9.4 6.43 9.45716 6.2875 9.57148 6.1725C9.68582 6.0575 9.82748 6 9.99648 6C10.1655 6 10.3083 6.0575 10.425 6.1725C10.5417 6.2875 10.6 6.43 10.6 6.6V9.4H13.4C13.57 9.4 13.7125 9.45716 13.8275 9.57148C13.9425 9.68582 14 9.82748 14 9.99648C14 10.1655 13.9425 10.3083 13.8275 10.425C13.7125 10.5417 13.57 10.6 13.4 10.6H10.6V13.4C10.6 13.57 10.5428 13.7125 10.4285 13.8275C10.3142 13.9425 10.1725 14 10.0035 14C9.83451 14 9.69167 13.9425 9.575 13.8275C9.45833 13.7125 9.4 13.57 9.4 13.4V10.6Z" fill="white"/>
</g>
</svg>
