<svg width="20" height="20" viewBox="0 0 20 20" fill="none" xmlns="http://www.w3.org/2000/svg">
<rect width="20" height="20" rx="10" fill="#5230FF"/>
<mask id="mask0_832_243" style="mask-type:alpha" maskUnits="userSpaceOnUse" x="2" y="2" width="16" height="16">
<rect x="2" y="2" width="16" height="16" fill="#D9D9D9"/>
</mask>
<g mask="url(#mask0_832_243)">
<path d="M6.46697 10.6C6.30012 10.6 6.15837 10.5429 6.0417 10.4285C5.92503 10.3142 5.8667 10.1725 5.8667 10.0035C5.8667 9.83453 5.9242 9.69169 6.0392 9.57502C6.1542 9.45836 6.2967 9.40002 6.4667 9.40002H13.5331C13.6999 9.40002 13.8417 9.45719 13.9584 9.57151C14.075 9.68584 14.1334 9.82751 14.1334 9.99651C14.1334 10.1655 14.0759 10.3084 13.9609 10.425C13.8459 10.5417 13.7034 10.6 13.5334 10.6H6.46697Z" fill="white"/>
</g>
</svg>
