<svg width="385" height="64" viewBox="0 0 385 64" fill="none" xmlns="http://www.w3.org/2000/svg">
<g clip-path="url(#clip0_118_3110)">
<path d="M102.768 46.4789C102.497 46.258 102.291 45.9405 102.148 45.5297L94.3896 21.7378L94.2819 21.2741C94.2819 20.9318 94.4059 20.6486 94.6604 20.4277C94.9116 20.2067 95.1987 20.0947 95.5217 20.0947H101.394C101.825 20.0947 102.184 20.2067 102.471 20.4277C102.758 20.6517 102.937 20.8976 103.009 21.1714L107.426 35.4061L112.111 21.2741C112.183 20.966 112.362 20.6922 112.65 20.4526C112.937 20.2129 113.315 20.0916 113.782 20.0916H117.498C117.964 20.0916 118.339 20.2129 118.63 20.4526C118.917 20.6922 119.116 20.966 119.223 21.2741L123.908 35.4061L128.27 21.1714C128.378 20.8976 128.567 20.6486 128.835 20.4277C129.105 20.2067 129.455 20.0947 129.885 20.0947H135.758C136.116 20.0947 136.413 20.2067 136.645 20.4277C136.877 20.6517 136.994 20.9349 136.994 21.2741C136.994 21.4453 136.974 21.6009 136.939 21.7378L129.128 45.5297C128.877 46.3855 128.303 46.815 127.406 46.815H122.287C121.39 46.815 120.78 46.3855 120.457 45.5297L115.664 31.8615L110.816 45.5297C110.565 46.3855 109.971 46.815 109.038 46.815H103.919C103.417 46.815 103.032 46.703 102.761 46.482L102.768 46.4789Z" fill="black"/>
<path d="M143.545 44.3221C141.121 42.3179 139.8 39.4673 139.584 35.767C139.549 35.322 139.529 34.5502 139.529 33.4547C139.529 32.3593 139.545 31.5875 139.584 31.1424C139.8 27.5106 141.154 24.6755 143.653 22.6371C146.149 20.5987 149.587 19.5811 153.969 19.5811C158.35 19.5811 161.789 20.6018 164.285 22.6371C166.78 24.6755 168.138 27.5106 168.353 31.1424C168.425 32.0325 168.461 32.8043 168.461 33.4547C168.461 34.1051 168.425 34.8769 168.353 35.767C168.138 39.4673 166.816 42.3179 164.392 44.3221C161.968 46.3263 158.494 47.3284 153.969 47.3284C149.444 47.3284 145.969 46.3263 143.545 44.3221ZM157.254 39.542C157.972 38.6675 158.386 37.323 158.494 35.5087C158.53 35.1664 158.549 34.4817 158.549 33.4547C158.549 32.4277 158.53 31.7431 158.494 31.4007C158.386 29.6206 157.972 28.2824 157.254 27.3924C156.536 26.5023 155.44 26.0573 153.969 26.0573C152.497 26.0573 151.401 26.5023 150.683 27.3924C149.966 28.2824 149.551 29.6206 149.444 31.4007L149.388 33.4547L149.444 35.5087C149.551 37.3262 149.962 38.6675 150.683 39.542C151.401 40.4165 152.497 40.8521 153.969 40.8521C155.44 40.8521 156.536 40.4165 157.254 39.542Z" fill="black"/>
<path d="M173.981 46.4292C173.71 46.1709 173.576 45.8721 173.576 45.5298V21.4298C173.576 21.0532 173.7 20.7358 173.955 20.4806C174.206 20.2223 174.529 20.0947 174.923 20.0947H181.494C181.889 20.0947 182.222 20.2223 182.489 20.4806C182.757 20.7389 182.894 21.0532 182.894 21.4298V23.3811C183.898 22.3199 185.076 21.5045 186.42 20.9412C187.768 20.3748 189.265 20.0947 190.919 20.0947H193.343C193.738 20.0947 194.061 20.2161 194.312 20.4557C194.563 20.6954 194.691 21.0035 194.691 21.38V26.9818C194.691 27.3241 194.563 27.6229 194.312 27.8812C194.061 28.1395 193.738 28.2671 193.343 28.2671H187.902C186.466 28.2671 185.36 28.6436 184.59 29.3967C183.817 30.1499 183.432 31.2142 183.432 32.5835V45.5329C183.432 45.9095 183.298 46.2176 183.027 46.4572C182.757 46.6968 182.427 46.8182 182.032 46.8182H174.923C174.565 46.8182 174.251 46.6906 173.981 46.4323V46.4292Z" fill="black"/>
<path d="M198.811 46.454C198.54 46.2144 198.407 45.9063 198.407 45.5297V11.6173C198.407 11.2408 198.54 10.9327 198.811 10.693C199.082 10.4534 199.412 10.332 199.806 10.332H206.377C206.772 10.332 207.095 10.4534 207.346 10.693C207.597 10.9327 207.724 11.2408 207.724 11.6173V28.7805L214.889 20.9691C214.96 20.9007 215.094 20.7824 215.293 20.6081C215.489 20.437 215.698 20.3094 215.913 20.2222C216.128 20.1382 216.399 20.0946 216.722 20.0946H224.317C224.64 20.0946 224.918 20.2067 225.152 20.4276C225.384 20.6517 225.501 20.9349 225.501 21.2741C225.501 21.5822 225.374 21.8561 225.123 22.0957L215.642 32.0637L226.47 44.8575C226.722 45.1656 226.849 45.4239 226.849 45.6293C226.849 45.9716 226.731 46.2548 226.5 46.4758C226.265 46.6998 225.968 46.8088 225.612 46.8088H217.802C217.336 46.8088 216.986 46.7403 216.752 46.6034C216.517 46.4664 216.239 46.2424 215.916 45.9343L207.728 36.2744V45.5235C207.728 45.8658 207.6 46.1646 207.349 46.4229C207.098 46.6812 206.775 46.8088 206.38 46.8088H199.81C199.415 46.8088 199.082 46.6905 198.815 46.4478L198.811 46.454Z" fill="black"/>
<path d="M234.013 46.1459C232.036 45.3585 230.575 44.4155 229.622 43.3201C228.669 42.2246 228.193 41.2319 228.193 40.3387C228.193 39.9964 228.327 39.7132 228.598 39.4922C228.868 39.2713 229.162 39.1592 229.485 39.1592H236.003C236.219 39.1592 236.398 39.2277 236.542 39.3646C237.152 39.7412 237.494 39.9653 237.566 40.0337C238.248 40.513 238.884 40.8802 239.478 41.1385C240.072 41.3968 240.78 41.5244 241.605 41.5244C242.574 41.5244 243.373 41.3439 244.003 40.986C244.629 40.625 244.946 40.1209 244.946 39.4704C244.946 38.9227 244.776 38.4777 244.434 38.1354C244.091 37.793 243.445 37.46 242.496 37.1333C241.543 36.8096 240.098 36.4735 238.16 36.1312C231.948 34.933 228.842 32.1913 228.842 27.9091C228.842 26.5055 229.319 25.1611 230.271 23.8758C231.224 22.5905 232.623 21.5542 234.473 20.7668C236.323 19.9795 238.542 19.5842 241.125 19.5842C243.709 19.5842 246.019 19.9701 247.941 20.7388C249.862 21.5106 251.324 22.4349 252.332 23.5148C253.337 24.5947 253.839 25.5781 253.839 26.4682C253.839 26.7763 253.722 27.0501 253.49 27.2897C253.255 27.5294 252.978 27.6507 252.655 27.6507H246.73C246.407 27.6507 246.156 27.5823 245.977 27.4454C245.546 27.24 245.115 26.9817 244.685 26.6736C244.039 26.2628 243.474 25.9453 242.988 25.7244C242.502 25.5034 241.882 25.3914 241.129 25.3914C240.231 25.3914 239.53 25.5812 239.028 25.9578C238.525 26.3343 238.274 26.8136 238.274 27.3956C238.274 27.9091 238.427 28.3292 238.731 28.656C239.034 28.9827 239.664 29.297 240.616 29.6051C241.569 29.9132 243.014 30.24 244.952 30.5823C248.472 31.1643 251.03 32.2006 252.629 33.6913C254.227 35.182 255.027 36.9216 255.027 38.9072C255.027 41.4777 253.833 43.5224 251.445 45.0473C249.056 46.5722 245.709 47.3347 241.399 47.3347C238.453 47.3347 235.994 46.9394 234.02 46.1521L234.013 46.1459Z" fill="black"/>
<path d="M260.057 56.2165C259.79 55.9769 259.653 55.6688 259.653 55.2922V21.3798C259.653 21.0033 259.787 20.6952 260.057 20.4556C260.328 20.2159 260.658 20.0945 261.053 20.0945H267.463C267.858 20.0945 268.181 20.2159 268.432 20.4556C268.683 20.6952 268.811 21.0033 268.811 21.3798V23.2284C270.749 20.7979 273.531 19.5811 277.159 19.5811C280.787 19.5811 283.381 20.6174 285.374 22.69C287.368 24.7627 288.434 27.7192 288.578 31.5532C288.614 31.9983 288.63 32.6331 288.63 33.4547C288.63 34.2763 288.611 34.9267 288.578 35.406C288.434 39.1063 287.358 42.0192 285.345 44.1416C283.332 46.2672 280.605 47.3284 277.156 47.3284C273.708 47.3284 271.068 46.1987 269.346 43.9362V55.2922C269.346 55.6688 269.218 55.9769 268.967 56.2165C268.716 56.4561 268.393 56.5775 267.998 56.5775H261.049C260.655 56.5775 260.322 56.4561 260.054 56.2165H260.057ZM277.512 38.8231C278.213 37.9143 278.614 36.6571 278.722 35.045C278.758 34.7027 278.774 34.1705 278.774 33.4516C278.774 32.7327 278.755 32.2006 278.722 31.8582C278.614 30.2493 278.21 28.9889 277.512 28.0802C276.81 27.1714 275.652 26.7171 274.037 26.7171C272.422 26.7171 271.342 27.187 270.589 28.1299C269.835 29.0729 269.421 30.2617 269.349 31.7026C269.313 32.1476 269.297 32.7981 269.297 33.6539C269.297 34.5097 269.313 35.1104 269.349 35.5554C269.421 36.8905 269.842 37.9953 270.615 38.8698C271.388 39.7442 272.527 40.1799 274.034 40.1799C275.649 40.1799 276.807 39.7256 277.508 38.8168L277.512 38.8231Z" fill="black"/>
<path d="M297.064 46.2735C295.501 45.5732 294.281 44.6023 293.4 43.3699C292.519 42.1375 292.082 40.7837 292.082 39.3117C292.082 36.9839 293.096 35.0917 295.126 33.6353C297.155 32.1788 299.948 31.1767 303.5 30.629L310.179 29.6518V29.0356C310.179 27.769 309.908 26.8447 309.37 26.2596C308.831 25.6777 307.915 25.3852 306.623 25.3852C305.905 25.3852 305.305 25.5065 304.818 25.7462C304.332 25.9858 303.784 26.3468 303.174 26.826C302.708 27.2026 302.293 27.4765 301.934 27.6476C301.791 27.8873 301.611 28.0086 301.396 28.0086H295.148C294.79 28.0086 294.493 27.8966 294.261 27.6756C294.026 27.4547 293.928 27.1871 293.964 26.879C294 25.9547 294.483 24.9183 295.419 23.77C296.352 22.6216 297.772 21.6382 299.674 20.8166C301.576 19.995 303.928 19.5842 306.73 19.5842C311.183 19.5842 314.488 20.5179 316.642 22.3851C318.795 24.2524 319.875 26.7794 319.875 29.963V45.5328C319.875 45.8751 319.747 46.1739 319.496 46.4322C319.245 46.6905 318.922 46.8181 318.527 46.8181H311.901C311.542 46.8181 311.229 46.6905 310.958 46.4322C310.688 46.1739 310.554 45.8751 310.554 45.5328V43.734C309.764 44.7952 308.668 45.6604 307.269 46.3295C305.869 46.9986 304.199 47.3316 302.257 47.3316C300.316 47.3316 298.62 46.9799 297.06 46.2797L297.064 46.2735ZM308.808 39.7723C309.797 38.7796 310.29 37.3418 310.29 35.4559V34.8397L305.82 35.5586C302.802 36.1063 301.295 37.1333 301.295 38.6426C301.295 39.43 301.644 40.0649 302.345 40.5441C303.047 41.0234 303.915 41.263 304.959 41.263C306.538 41.263 307.823 40.7682 308.812 39.7723H308.808Z" fill="black"/>
<path d="M328.846 44.2195C326.315 42.1468 324.958 39.2619 324.778 35.5617L324.723 33.5077L324.778 31.4008C324.922 27.7005 326.269 24.8063 328.817 22.7181C331.365 20.6299 334.689 19.5842 338.781 19.5842C341.906 19.5842 344.526 20.1164 346.646 21.1776C348.764 22.2388 350.346 23.4992 351.387 24.9557C352.428 26.4121 352.985 27.7379 353.057 28.9392C353.093 29.3157 352.966 29.6331 352.679 29.8883C352.392 30.1466 352.049 30.2742 351.654 30.2742H344.438C344.043 30.2742 343.736 30.1902 343.521 30.0159C343.306 29.8448 343.107 29.5709 342.927 29.1943C342.532 28.2358 342.02 27.5325 341.391 27.0875C340.761 26.6424 339.962 26.4184 338.993 26.4184C336.226 26.4184 334.791 28.1642 334.683 31.6591L334.627 33.6104L334.683 35.3065C334.719 37.0897 335.094 38.3999 335.815 39.237C336.533 40.0773 337.593 40.4974 338.993 40.4974C340.033 40.4974 340.852 40.2827 341.443 39.8563C342.037 39.4269 342.529 38.7173 342.924 37.7246C343.103 37.348 343.302 37.0741 343.518 36.903C343.733 36.7318 344.036 36.6447 344.434 36.6447H351.651C352.01 36.6447 352.333 36.766 352.62 37.0057C352.907 37.2453 353.051 37.5378 353.051 37.8802C353.051 38.9414 352.558 40.2173 351.569 41.708C350.581 43.1987 349.012 44.5089 346.855 45.6386C344.702 46.7683 342.007 47.3347 338.774 47.3347C334.68 47.3347 331.368 46.2984 328.837 44.2257L328.846 44.2195Z" fill="black"/>
<path d="M360.492 43.9611C357.977 41.7173 356.685 38.4558 356.613 34.1736V32.5802C356.757 28.5034 358.085 25.3197 360.6 23.023C363.112 20.7294 366.508 19.5811 370.782 19.5811C373.872 19.5811 376.482 20.1724 378.619 21.3549C380.756 22.5375 382.354 24.1652 383.411 26.2378C384.471 28.3104 385 30.6663 385 33.3022V34.5875C385 34.9641 384.866 35.2815 384.595 35.5367C384.325 35.7919 383.995 35.9226 383.6 35.9226H366.525V36.2307C366.561 37.7712 366.936 39.0129 367.657 39.9559C368.374 40.8988 369.399 41.3687 370.727 41.3687C371.588 41.3687 372.28 41.2069 372.802 40.8802C373.32 40.5565 373.816 40.1364 374.283 39.6198C374.606 39.2774 374.867 39.0627 375.063 38.9787C375.258 38.8946 375.575 38.8511 376.005 38.8511H383.062C383.385 38.8511 383.662 38.9444 383.897 39.1343C384.129 39.3241 384.246 39.5544 384.246 39.8283C384.246 40.7183 383.718 41.764 382.658 42.9621C381.597 44.1603 380.054 45.1904 378.025 46.0462C375.996 46.902 373.598 47.3315 370.834 47.3315C366.453 47.3315 363.004 46.2112 360.492 43.9673V43.9611ZM375.092 30.6787V30.576C375.092 28.9329 374.713 27.6569 373.96 26.7482C373.206 25.8395 372.146 25.3851 370.782 25.3851C369.418 25.3851 368.368 25.8395 367.631 26.7482C366.893 27.6569 366.528 28.9329 366.528 30.576V30.6787H375.092Z" fill="black"/>
<path d="M59.5108 32.957L61.1355 27.4517C61.713 25.4973 63.5823 24.1467 65.7127 24.1467H70.6325C73.8363 24.1467 76.1233 27.1094 75.1706 30.0285L65.1222 60.8163C64.5024 62.7116 62.6656 64.0031 60.5841 64.0031H52.9989C50.9175 64.0031 49.0774 62.7116 48.4608 60.8163L41.6945 40.0587C40.3112 35.8107 34.0081 35.8076 32.6183 40.0525L30.3248 47.0547C29.7049 48.9468 27.8681 50.2353 25.7867 50.2353H18.1949C16.1135 50.2353 14.2767 48.9437 13.6568 47.0485L0.218746 5.88184C-0.733894 2.9627 1.55309 0 4.75683 0H10.0029C12.1333 0 14.0027 1.35064 14.5801 3.30503L19.1835 18.9184C20.4819 23.3282 27.0362 23.3282 28.3347 18.9184L29.8778 13.6807C30.4553 11.7263 32.3247 10.3757 34.4551 10.3757H39.9001C42.0142 10.3757 43.8738 11.7077 44.4643 13.6434L50.3726 32.9974C51.707 37.373 58.2189 37.345 59.5108 32.957Z" fill="#5230FF"/>
</g>
<defs>
<clipPath id="clip0_118_3110">
<rect width="385" height="64" fill="white"/>
</clipPath>
</defs>
</svg>
